<svg width="24" height="25" viewBox="0 0 24 25" fill="none" xmlns="http://www.w3.org/2000/svg">
<path d="M12.0103 21.5392C11.6495 21.5392 11.1084 21.3893 11.0683 20.9796V19.9302L10.7576 19.8602C9.96599 19.6903 9.25451 19.2905 8.62319 18.6809C7.99187 18.0712 7.56097 17.2317 7.33049 16.1823C7.26035 15.8525 7.31045 15.5627 7.49083 15.3428C7.6712 15.113 7.98185 14.9731 8.2925 14.9731C8.64323 14.9731 8.90378 15.143 9.03405 15.4428C9.26453 16.3922 9.65535 17.1218 10.2065 17.5915C10.7677 18.0613 11.4391 18.3011 12.2107 18.3011C12.9823 18.3011 13.6537 18.1312 14.1046 17.8114C14.5957 17.4516 14.8462 16.9019 14.8462 16.1724C14.8462 15.5327 14.5756 14.993 14.0345 14.5933C13.5635 14.2335 12.8119 13.8837 11.7297 13.5139C10.3167 13.0242 9.29459 12.4645 8.70336 11.8549C8.14219 11.2752 7.8616 10.5056 7.8616 9.57619C7.8616 8.82662 8.1021 8.11704 8.58311 7.46741C9.05409 6.82779 9.81568 6.37805 10.8278 6.13819L11.1384 6.06823V4.85893C11.1485 4.47915 11.6796 4.33923 12.0303 4.33923C12.4812 4.33923 12.9522 4.53912 12.9923 4.9089V6.1082L13.343 6.15818C14.0345 6.24812 14.6458 6.53795 15.1568 7.02767C15.6779 7.51739 16.0687 8.177 16.3193 8.99653C16.4094 9.28636 16.3794 9.53621 16.2291 9.73609C16.0387 9.99594 15.6479 10.1758 15.2771 10.1758C15.1167 10.1758 14.7359 10.1359 14.6858 9.79606C14.4854 9.13644 14.1547 8.63673 13.6938 8.26695C13.2228 7.88717 12.6215 7.69728 11.9101 7.69728C11.2888 7.69728 10.7777 7.8372 10.3769 8.12703C9.94595 8.43685 9.71547 8.88659 9.71547 9.42627C9.71547 10.0359 9.98604 10.5356 10.5372 10.9254C11.0082 11.2652 11.8499 11.635 13.1126 12.0547C14.5656 12.5545 15.5376 13.1641 15.9986 13.8537C16.4696 14.5533 16.7 15.3328 16.7 16.1724C16.7 17.3717 16.3694 18.2511 15.708 18.7908C14.9965 19.3605 14.1748 19.7403 13.2629 19.9102L12.9322 19.9701V20.9995C12.9121 21.3793 12.371 21.5192 12.0203 21.5192L12.0103 21.5392Z" fill="#606882"/>
</svg>
