<svg width="24" height="24" viewBox="0 0 24 24" fill="none" xmlns="http://www.w3.org/2000/svg">
<path d="M18.032 12.7257C17.6222 12.6956 17.2624 13.0158 17.2324 13.426C17.0126 16.6978 14.274 19.2592 10.9958 19.2592C7.54768 19.2592 4.74919 16.4577 4.74919 13.0058C4.74919 9.55395 7.30781 6.98256 10.576 6.76244C10.9858 6.73242 11.3056 6.38223 11.2757 5.96201C11.2457 5.55178 10.8959 5.24162 10.4761 5.26163C6.41829 5.53177 3.25 8.92361 3.25 12.9958C3.25 17.2681 6.72812 20.75 10.9958 20.75C15.2635 20.75 18.4618 17.5683 18.7216 13.5161C18.7516 13.1059 18.4318 12.7457 18.022 12.7157L18.032 12.7257Z" fill="#022A9A"/>
<path d="M14.0042 2.25C13.5944 2.25 13.2546 2.59018 13.2546 3.00041V10.0042C13.2546 10.4144 13.5944 10.7546 14.0042 10.7546H21.0004C21.4102 10.7546 21.75 10.4144 21.75 10.0042C21.75 5.73188 18.2719 2.25 14.0042 2.25ZM14.7538 9.25379V3.79083C17.6022 4.13102 19.861 6.40224 20.2108 9.25379H14.7538Z" fill="#022A9A"/>
</svg>
