<svg width="25" height="25" viewBox="0 0 25 25" fill="none" xmlns="http://www.w3.org/2000/svg">
<path fill-rule="evenodd" clip-rule="evenodd" d="M17.0833 0.625C15.8976 0.675649 14.4608 1.42943 13.6105 2.44284C12.8461 3.34283 12.1788 4.77916 12.3587 6.15638C13.6826 6.26184 15.0315 5.47201 15.8556 4.45807C16.678 3.44232 17.2348 2.03269 17.0833 0.625ZM16.7482 24.593C18.3548 24.5625 19.3723 23.1084 20.3561 21.6454C21.434 20.0428 21.91 18.489 21.9809 18.2573C21.9849 18.2444 21.9876 18.2356 21.9891 18.2311C21.9883 18.2308 21.9863 18.23 21.9831 18.2286C21.8286 18.1647 18.8549 16.9344 18.8253 13.3779C18.7963 10.441 21.0978 8.98005 21.3512 8.81921C21.36 8.81362 21.3663 8.8096 21.37 8.80715C19.9847 6.74556 17.8276 6.46289 17.0591 6.4306C15.9364 6.31507 14.8473 6.75177 13.9574 7.10858C13.3918 7.33533 12.9068 7.52981 12.5447 7.52981C12.1418 7.52981 11.6434 7.32854 11.0842 7.10267C10.3522 6.80703 9.51578 6.46925 8.65231 6.48541C6.65233 6.51588 4.80673 7.66991 3.77676 9.49387C1.69683 13.1666 3.24336 18.6089 5.26965 21.5868C6.26148 23.0433 7.44085 24.6825 8.99186 24.6235C9.68438 24.5952 10.1772 24.3816 10.6869 24.1607C11.276 23.9055 11.8876 23.6405 12.8559 23.6405C13.7781 23.6405 14.3614 23.8973 14.9224 24.1443C15.459 24.3806 15.9752 24.6079 16.7482 24.593Z" fill="#565656"/>
</svg>
