<svg width="16" height="16" viewBox="0 0 16 16" fill="none" xmlns="http://www.w3.org/2000/svg">
<rect width="16" height="16" fill="white"/>
<path d="M5.43594 11.112C3.25951 11.112 1.0032 9.28231 1 6.78035C0.999202 6.14248 1.45015 5.3732 2.30171 5.3732C3.15327 5.3732 3.56826 5.87287 3.63616 6.78035C3.7448 8.22824 4.30918 9.33942 4.41942 9.55151C4.42861 9.56869 4.4338 9.57907 4.4362 9.58427C4.7745 10.2745 5.44553 10.6986 6.27272 10.6986C6.80475 10.6986 7.26048 10.5021 7.65671 10.1678C6.96372 10.834 6.23238 11.112 5.43514 11.112H5.43594Z" fill="#022A9A"/>
<path d="M10.5641 4C12.7401 4 14.9964 5.82974 15 8.33169C15.0008 8.96956 14.5499 9.73884 13.6983 9.73884C12.8467 9.73884 12.4317 9.23917 12.3638 8.33169C12.2464 6.76597 11.5982 5.59408 11.5634 5.52778C11.2171 4.86634 10.5253 4.4134 9.72688 4.4134C9.19486 4.4134 8.73912 4.60991 8.3429 4.94422C9.03589 4.278 9.76722 4 10.5645 4H10.5641Z" fill="#022A9A"/>
<path d="M11.5618 5.52538C11.2147 4.86515 10.5241 4.4138 9.72687 4.4138C9.19485 4.4138 8.73911 4.61032 8.34289 4.94463L8.33729 4.94942C6.79794 6.32742 5.91922 8.93761 4.4198 9.55152C4.42899 9.5687 4.43418 9.57908 4.43658 9.58427C4.77488 10.2745 5.44591 10.6986 6.2731 10.6986C6.80513 10.6986 7.26086 10.5021 7.65709 10.1678C9.25436 8.74869 9.95614 6.26191 11.5618 5.52538V5.52538Z" fill="#FF5874"/>
</svg>
