<svg width="49" height="48" viewBox="0 0 49 48" fill="none" xmlns="http://www.w3.org/2000/svg">
<path d="M16.5 18.75H18.5C18.5 18.75 18.59 18.73 18.64 18.72C18.93 19.47 19.65 20 20.5 20C21.35 20 22.07 19.47 22.36 18.72C22.41 18.72 22.45 18.75 22.5 18.75H32.5C32.91 18.75 33.25 18.41 33.25 18C33.25 17.59 32.91 17.25 32.5 17.25H22.5C22.5 17.25 22.41 17.27 22.36 17.28C22.07 16.53 21.35 16 20.5 16C19.65 16 18.93 16.53 18.64 17.28C18.59 17.28 18.55 17.25 18.5 17.25H16.5C16.09 17.25 15.75 17.59 15.75 18C15.75 18.41 16.09 18.75 16.5 18.75ZM20.5 17.5C20.78 17.5 21 17.72 21 18C21 18.28 20.78 18.5 20.5 18.5C20.22 18.5 20 18.28 20 18C20 17.72 20.22 17.5 20.5 17.5Z" fill="#022A9A"/>
<path d="M32.5 23.25H30.5C30.5 23.25 30.41 23.27 30.36 23.28C30.07 22.53 29.35 22 28.5 22C27.65 22 26.93 22.53 26.64 23.28C26.59 23.28 26.55 23.25 26.5 23.25H16.5C16.09 23.25 15.75 23.59 15.75 24C15.75 24.41 16.09 24.75 16.5 24.75H26.5C26.5 24.75 26.59 24.73 26.64 24.72C26.93 25.47 27.65 26 28.5 26C29.35 26 30.07 25.47 30.36 24.72C30.41 24.72 30.45 24.75 30.5 24.75H32.5C32.91 24.75 33.25 24.41 33.25 24C33.25 23.59 32.91 23.25 32.5 23.25ZM28.5 24.5C28.22 24.5 28 24.28 28 24C28 23.72 28.22 23.5 28.5 23.5C28.78 23.5 29 23.72 29 24C29 24.28 28.78 24.5 28.5 24.5Z" fill="#022A9A"/>
<path d="M32.5 29.25H22.5C22.5 29.25 22.41 29.27 22.36 29.28C22.07 28.53 21.35 28 20.5 28C19.65 28 18.93 28.53 18.64 29.28C18.59 29.28 18.55 29.25 18.5 29.25H16.5C16.09 29.25 15.75 29.59 15.75 30C15.75 30.41 16.09 30.75 16.5 30.75H18.5C18.5 30.75 18.59 30.73 18.64 30.72C18.93 31.47 19.65 32 20.5 32C21.35 32 22.07 31.47 22.36 30.72C22.41 30.72 22.45 30.75 22.5 30.75H32.5C32.91 30.75 33.25 30.41 33.25 30C33.25 29.59 32.91 29.25 32.5 29.25ZM20.5 30.5C20.22 30.5 20 30.28 20 30C20 29.72 20.22 29.5 20.5 29.5C20.78 29.5 21 29.72 21 30C21 30.28 20.78 30.5 20.5 30.5Z" fill="#022A9A"/>
</svg>
