<svg width="24" height="25" viewBox="0 0 24 25" fill="none" xmlns="http://www.w3.org/2000/svg">
<path fill-rule="evenodd" clip-rule="evenodd" d="M2.25 7.93921C2.25 8.34921 2.59 8.68921 3 8.68921V8.67921C3.41 8.67921 3.75 8.33921 3.75 7.92921C3.75 7.78921 3.86 7.67921 4 7.67921H12.01C12.26 7.67921 12.49 7.55921 12.63 7.34921L14.33 4.79921C14.38 4.72921 14.46 4.68921 14.54 4.68921H20.25V4.93921C20.25 5.34921 20.59 5.68921 21 5.68921C21.41 5.68921 21.75 5.34921 21.75 4.93921V3.93921C21.75 3.52921 21.41 3.18921 21 3.18921H14.54C13.95 3.18921 13.41 3.47921 13.08 3.96921L11.6 6.18921H4C3.04 6.18921 2.25 6.97921 2.25 7.93921ZM20 22.6892H4C3.04 22.6892 2.25 21.8992 2.25 20.9392V11.9392C2.25 10.9792 3.04 10.1892 4 10.1892H13.6L15.08 7.96921C15.41 7.47921 15.95 7.18921 16.54 7.18921H20C20.96 7.18921 21.75 7.97921 21.75 8.93921V20.9392C21.75 21.8992 20.96 22.6892 20 22.6892ZM4 11.6892C3.86 11.6892 3.75 11.7992 3.75 11.9392V20.9392C3.75 21.0792 3.86 21.1892 4 21.1892H20C20.14 21.1892 20.25 21.0792 20.25 20.9392V8.93921C20.25 8.79921 20.14 8.68921 20 8.68921H16.54C16.46 8.68921 16.38 8.72921 16.33 8.79921L14.63 11.3492C14.49 11.5592 14.26 11.6792 14.01 11.6792H4V11.6892ZM10 18.6892H7C6.59 18.6892 6.25 18.3492 6.25 17.9392C6.25 17.5292 6.59 17.1892 7 17.1892H10C10.41 17.1892 10.75 17.5292 10.75 17.9392C10.75 18.3492 10.41 18.6892 10 18.6892Z" fill="#606882"/>
</svg>
