<svg width="80" height="40" viewBox="0 0 80 40" fill="none" xmlns="http://www.w3.org/2000/svg">
<path d="M60.7582 14.2293V11.2699C62.6267 11.177 63.9034 9.83675 63.9976 8H66.9875C66.9251 11.457 64.2152 14.1046 60.7582 14.2293Z" fill="#022A9A"/>
<path d="M43.7725 28.3817V31.6382H42.8077C40.6371 31.6382 39.2797 30.7333 38.8578 29.0457C37.6215 30.8543 35.6625 32.0002 33.3097 32.0002C28.9685 32.0002 25.7413 28.5333 25.7413 23.95C25.7413 19.3667 28.9673 15.8999 33.3097 15.8999C35.5707 15.8999 37.4711 16.9552 38.7062 18.644V16.2619H42.0825V26.9656C42.0825 27.84 42.5949 28.3829 43.4998 28.3829H43.7713L43.7725 28.3817ZM38.7074 23.95C38.7074 21.2365 36.6872 19.1564 33.9737 19.1564C31.2601 19.1564 29.2106 21.2365 29.2106 23.95C29.2106 26.6636 31.2308 28.7437 33.9737 28.7437C36.7166 28.7437 38.7074 26.6636 38.7074 23.95Z" fill="#022A9A"/>
<path d="M46.5093 8H50.0972V31.638H46.5093V8Z" fill="#022A9A"/>
<path d="M70.5717 28.3817V31.6382H69.6069C67.4363 31.6382 66.0789 30.7333 65.657 29.0457C64.4207 30.8543 62.4617 32.0002 60.1089 32.0002C55.7677 32.0002 52.5405 28.5333 52.5405 23.95C52.5405 19.3667 55.7665 15.8999 60.1089 15.8999C62.3699 15.8999 64.2691 16.9552 65.5054 18.644V16.2619H68.8817V26.9656C68.8817 27.84 69.3941 28.3829 70.299 28.3829H70.5705L70.5717 28.3817ZM65.5066 23.95C65.5066 21.2365 63.4864 19.1564 60.7729 19.1564C58.0593 19.1564 56.0086 21.2365 56.0086 23.95C56.0086 26.6636 58.0288 28.7437 60.7729 28.7437C63.517 28.7437 65.5066 26.6636 65.5066 23.95Z" fill="#022A9A"/>
<path d="M16.3363 32.0002C12.0599 32.0002 9.42831 29.6828 9.42831 26.0998V16.3145H12.7802V25.0139C12.7802 27.692 14.1865 28.7791 16.3412 28.7791C18.6157 28.7791 20.1419 27.5734 20.1419 25.0139V16.3145H23.4937V26.1267C23.4937 30.0252 20.6335 32.0002 16.3375 32.0002H16.3363Z" fill="#022A9A"/>
</svg>
